<svg aria-hidden="true" style="position: absolute; width: 0; height: 0; overflow: hidden;" version="1.1" xmlns="http://www.w3.org/2000/svg" xmlns:xlink="http://www.w3.org/1999/xlink">
<defs>
<symbol id="icon-close" viewBox="0 0 32 32">
<path d="M24.943 7.057c0.521 0.521 0.521 1.365 0 1.886l-16 16c-0.521 0.521-1.365 0.521-1.886 0s-0.521-1.365 0-1.886l16-16c0.521-0.521 1.365-0.521 1.886 0z"></path>
<path d="M7.057 7.057c0.521-0.521 1.365-0.521 1.886 0l16 16c0.521 0.521 0.521 1.365 0 1.886s-1.365 0.521-1.886 0l-16-16c-0.521-0.521-0.521-1.365 0-1.886z"></path>
</symbol>
<symbol id="icon-phone" viewBox="0 0 32 32">
<path d="M26 29.667h-3c-11.409-0.013-20.654-9.258-20.667-20.665v-3.001c0.001-2.025 1.642-3.666 3.667-3.667h1.829c1.010 0.001 1.858 0.692 2.098 1.627l0.003 0.015 1.474 5.896c0.042 0.159 0.066 0.341 0.066 0.53 0 0.706-0.339 1.333-0.864 1.726l-0.006 0.004-1.723 1.292c-0.194 0.137-0.319 0.36-0.319 0.613 0 0.085 0.014 0.167 0.040 0.243l-0.002-0.005c1.592 4.246 4.883 7.537 9.023 9.095l0.106 0.035c0.070 0.024 0.151 0.038 0.235 0.038 0.254 0 0.478-0.126 0.614-0.318l0.002-0.002 1.292-1.724c0.399-0.529 1.027-0.868 1.734-0.868 0.187 0 0.368 0.024 0.54 0.068l-0.015-0.003 5.898 1.475c0.95 0.242 1.641 1.089 1.641 2.098 0 0.001 0 0.002 0 0.003v-0 1.829c-0.001 2.025-1.642 3.666-3.667 3.667h-0zM6 3.667c-1.288 0.001-2.332 1.045-2.333 2.333v3c0.013 10.672 8.661 19.321 19.332 19.333h3.001c1.289-0 2.333-1.045 2.333-2.333v-1.829c0-0 0-0.001 0-0.001 0-0.388-0.265-0.713-0.624-0.805l-0.006-0.001-5.898-1.475c-0.062-0.016-0.132-0.026-0.205-0.026-0.272 0-0.513 0.131-0.663 0.334l-0.002 0.002-1.292 1.723c-0.381 0.521-0.991 0.855-1.678 0.855-0.25 0-0.49-0.044-0.712-0.125l0.014 0.005c-4.615-1.73-8.191-5.307-9.883-9.806l-0.038-0.115c-0.077-0.209-0.122-0.45-0.122-0.701 0-0.686 0.334-1.295 0.848-1.671l0.006-0.004 1.725-1.293c0.204-0.153 0.335-0.394 0.335-0.665 0-0.072-0.009-0.142-0.027-0.209l0.001 0.006-1.475-5.898c-0.094-0.365-0.42-0.631-0.808-0.631h-0z"></path>
</symbol>
<symbol id="icon-success" viewBox="0 0 32 32">
<path d="M16 2c3.713 0 7.274 1.475 9.899 4.101s4.101 6.186 4.101 9.899-1.475 7.274-4.101 9.899c-2.625 2.626-6.186 4.101-9.899 4.101s-7.274-1.475-9.899-4.101c-2.626-2.625-4.101-6.186-4.101-9.899s1.475-7.274 4.101-9.899c2.626-2.626 6.186-4.101 9.899-4.101zM14.256 18.762l-3.11-3.112c-0.111-0.111-0.244-0.2-0.39-0.26s-0.302-0.091-0.459-0.091c-0.158 0-0.314 0.031-0.459 0.091s-0.278 0.149-0.39 0.26c-0.225 0.225-0.352 0.531-0.352 0.849s0.127 0.624 0.352 0.849l3.96 3.96c0.111 0.112 0.243 0.201 0.389 0.262s0.302 0.092 0.46 0.092 0.314-0.031 0.46-0.092c0.146-0.061 0.278-0.15 0.389-0.262l8.2-8.202c0.113-0.111 0.203-0.243 0.264-0.389s0.094-0.303 0.094-0.461c0.001-0.158-0.030-0.315-0.090-0.462s-0.149-0.28-0.261-0.392c-0.112-0.112-0.245-0.201-0.391-0.261s-0.303-0.091-0.462-0.091-0.315 0.032-0.461 0.094c-0.146 0.061-0.278 0.151-0.39 0.264l-7.354 7.354z"></path>
</symbol>
<symbol id="icon-arrow-narrow-slider" viewBox="0 0 32 32">
<path d="M4 16c0-0.736 0.597-1.333 1.333-1.333h21.333c0.736 0 1.333 0.597 1.333 1.333s-0.597 1.333-1.333 1.333h-21.333c-0.736 0-1.333-0.597-1.333-1.333z"></path>
<path d="M17.724 7.057c0.521-0.521 1.365-0.521 1.886 0l8 8c0.521 0.521 0.521 1.365 0 1.886l-8 8c-0.521 0.521-1.365 0.521-1.886 0s-0.521-1.365 0-1.886l7.057-7.057-7.057-7.057c-0.521-0.521-0.521-1.365 0-1.886z"></path>
</symbol>
<symbol id="icon-arrow-dropdown-down" viewBox="0 0 32 32">
<path d="M24.943 11.057c-0.521-0.521-1.365-0.521-1.886 0l-7.057 7.057-7.057-7.057c-0.521-0.521-1.365-0.521-1.886 0s-0.521 1.365 0 1.886l8.943 8.943 8.943-8.943c0.521-0.521 0.521-1.365 0-1.886z"></path>
</symbol>
<symbol id="icon-arrow-dropdown-up" viewBox="0 0 32 32">
<path d="M24.943 20.943c-0.521 0.521-1.365 0.521-1.886 0l-7.057-7.057-7.057 7.057c-0.521 0.521-1.365 0.521-1.886 0s-0.521-1.365 0-1.886l8.943-8.943 8.943 8.943c0.521 0.521 0.521 1.365 0 1.886z"></path>
</symbol>
<symbol id="icon-hourglass" viewBox="0 0 32 32">
<path d="M5.333 3.783c0-1.353 1.097-2.45 2.45-2.45h16.434c1.353 0 2.45 1.097 2.45 2.45 0 3.907-1.552 7.655-4.315 10.417l-1.626 1.626c-0.085 0.085-0.132 0.132-0.165 0.167-0.002 0.002-0.004 0.005-0.006 0.007 0.002 0.002 0.004 0.004 0.006 0.007 0.033 0.035 0.080 0.082 0.165 0.167l1.626 1.626c2.763 2.763 4.315 6.51 4.315 10.417 0 1.353-1.097 2.45-2.45 2.45h-16.434c-1.353 0-2.45-1.097-2.45-2.45 0-3.907 1.552-7.655 4.315-10.417l1.626-1.626c0.085-0.085 0.132-0.132 0.165-0.167 0.002-0.002 0.004-0.005 0.006-0.007-0.002-0.002-0.004-0.004-0.006-0.007-0.033-0.035-0.080-0.082-0.165-0.167l-1.626-1.626c-2.763-2.763-4.315-6.51-4.315-10.417zM8.002 4c0.056 3.122 1.32 6.103 3.532 8.315l1.626 1.626c0.011 0.011 0.023 0.023 0.035 0.035 0.123 0.122 0.272 0.271 0.391 0.43v0c0.705 0.946 0.705 2.242 0 3.188v0c-0.119 0.159-0.268 0.308-0.391 0.43-0.012 0.012-0.024 0.024-0.035 0.035l-1.626 1.626c-2.212 2.212-3.476 5.193-3.532 8.315h15.996c-0.056-3.122-1.32-6.103-3.532-8.315l-1.626-1.626c-0.011-0.011-0.023-0.023-0.035-0.035-0.123-0.122-0.272-0.271-0.391-0.43-0.705-0.946-0.705-2.242 0-3.188 0.119-0.159 0.268-0.308 0.391-0.43 0.012-0.012 0.024-0.024 0.035-0.035l1.626-1.626c2.212-2.212 3.476-5.193 3.532-8.315h-15.996z"></path>
</symbol>
<symbol id="icon-user" viewBox="0 0 32 32">
<path d="M12.435 19.333c0.076 0 0.153 0 0.232 0h6.667c0.078 0 0.155 0 0.232-0 1.636-0.001 2.754-0.001 3.704 0.287v0c2.131 0.646 3.798 2.314 4.444 4.444 0.288 0.95 0.288 2.067 0.287 3.703 0 0.076 0 0.153 0 0.232 0 0.736-0.597 1.333-1.333 1.333s-1.333-0.597-1.333-1.333c0-1.958-0.015-2.641-0.172-3.161-0.388-1.278-1.388-2.279-2.667-2.667-0.52-0.158-1.203-0.172-3.161-0.172h-6.667c-1.958 0-2.641 0.014-3.161 0.172-1.278 0.388-2.279 1.388-2.667 2.667-0.158 0.52-0.172 1.203-0.172 3.161 0 0.736-0.597 1.333-1.333 1.333s-1.333-0.597-1.333-1.333c0-0.078-0-0.156-0-0.232-0.001-1.636-0.001-2.754 0.287-3.704 0.646-2.131 2.314-3.798 4.444-4.444 0.95-0.288 2.067-0.288 3.704-0.287z"></path>
<path d="M16 5.333c-2.577 0-4.667 2.089-4.667 4.667s2.089 4.667 4.667 4.667c2.577 0 4.667-2.089 4.667-4.667s-2.089-4.667-4.667-4.667zM8.667 10c0-4.050 3.283-7.333 7.333-7.333s7.333 3.283 7.333 7.333c0 4.050-3.283 7.333-7.333 7.333s-7.333-3.283-7.333-7.333z"></path>
</symbol>
<symbol id="icon-brush" viewBox="0 0 32 32">
<path d="M11.057 14.021c0.521-0.521 1.365-0.521 1.886 0l5.037 5.037c0.521 0.521 0.521 1.365 0 1.886s-1.365 0.521-1.886 0l-5.037-5.037c-0.521-0.521-0.521-1.365 0-1.886z"></path>
<path d="M23.019 2.942c1.685-1.56 4.301-1.51 5.924 0.114s1.674 4.239 0.114 5.924l-12.183 13.157c-0.038 0.041-0.076 0.083-0.114 0.123-0.514 0.557-0.957 1.037-1.466 1.337-0.611 0.361-1.295 0.547-1.982 0.555 0.145 1.701-0.434 3.453-1.736 4.755-1.254 1.253-2.978 1.632-4.504 1.753-1.035 0.082-2.183 0.053-3.185 0.027-0.443-0.011-0.857-0.022-1.22-0.022-0.464 0-0.895-0.242-1.138-0.638s-0.261-0.89-0.049-1.303c0.476-0.928 0.432-2.023 0.372-3.505-0.002-0.044-0.004-0.089-0.005-0.134l-0.001-0.034c-0.053-1.319-0.13-3.253 1.245-4.628 1.302-1.302 3.053-1.88 4.755-1.736 0.009-0.687 0.195-1.371 0.556-1.982 0.301-0.509 0.78-0.952 1.337-1.466 0.041-0.038 0.082-0.075 0.123-0.114l13.157-12.183zM27.057 4.942c-0.61-0.61-1.593-0.629-2.227-0.043l-13.157 12.183c-0.751 0.695-0.902 0.854-0.976 0.98-0.238 0.403-0.247 0.9-0.025 1.311 0.069 0.128 0.214 0.293 0.938 1.017s0.888 0.868 1.017 0.938c0.411 0.222 0.909 0.213 1.311-0.025 0.125-0.074 0.284-0.225 0.98-0.976l12.183-13.157c0.586-0.633 0.567-1.617-0.043-2.227zM9.69 22.309c-1.302-1.302-3.412-1.302-4.714 0-0.436 0.436-0.526 1.129-0.465 2.671 0.004 0.101 0.009 0.206 0.014 0.313 0.035 0.787 0.079 1.751-0.075 2.741 0.817 0.021 1.609 0.034 2.41-0.030 1.335-0.106 2.261-0.412 2.83-0.981 1.302-1.302 1.302-3.412 0-4.714z"></path>
</symbol>
<symbol id="icon-chat" viewBox="0 0 32 32">
<path d="M6.667 13.333c0-6.636 5.412-12 12.070-12s12.070 5.364 12.070 12c0 1.496-0.276 2.931-0.781 4.255-0.049 0.128-0.077 0.203-0.097 0.258-0.003 0.007-0.005 0.013-0.006 0.018 0 0.002 0 0.004 0.001 0.006 0.004 0.044 0.011 0.104 0.026 0.218l0.541 4.397c0.025 0.203 0.053 0.433 0.060 0.633 0.007 0.222-0.002 0.566-0.167 0.927-0.206 0.451-0.573 0.809-1.029 1.005-0.365 0.157-0.709 0.158-0.931 0.146-0.2-0.011-0.43-0.045-0.632-0.075-0.012-0.002-0.025-0.004-0.037-0.005l-4.247-0.623c-0.118-0.017-0.18-0.026-0.225-0.032-0.002-0-0.004-0.001-0.006-0.001-0.005 0.002-0.012 0.004-0.019 0.006-0.057 0.020-0.134 0.049-0.267 0.098-1.325 0.496-2.76 0.767-4.255 0.767-0.239 0-0.477-0.007-0.714-0.021-1.271 3.132-4.29 5.354-7.848 5.354-0.97 0-1.905-0.167-2.776-0.474-0.144-0.051-0.233-0.082-0.299-0.104-0.012-0.004-0.022-0.007-0.029-0.009-0.002 0-0.005 0-0.007 0.001-0.046 0.005-0.108 0.013-0.224 0.029l-3.993 0.545c-0.432 0.059-0.866-0.097-1.161-0.418s-0.415-0.766-0.321-1.191l0.815-3.682c0.028-0.128 0.043-0.197 0.053-0.248 0.001-0.003 0.001-0.005 0.002-0.008-0.002-0.008-0.005-0.019-0.009-0.032-0.022-0.073-0.054-0.172-0.107-0.332-0.282-0.864-0.434-1.787-0.434-2.743 0-3.501 2.044-6.545 5.006-7.907-0.016-0.251-0.024-0.505-0.024-0.76zM9.333 13.375c0.277-0.028 0.558-0.042 0.842-0.042 4.72 0 8.491 3.911 8.491 8.667 0 0.224-0.008 0.446-0.025 0.666 0.032 0 0.063 0.001 0.095 0.001 1.171 0 2.289-0.212 3.319-0.598 0.019-0.007 0.038-0.014 0.057-0.022 0.188-0.071 0.411-0.155 0.614-0.197 0.186-0.039 0.344-0.056 0.534-0.057 0.207-0.001 0.417 0.030 0.587 0.055 0.016 0.002 0.032 0.005 0.047 0.007l3.901 0.572-0.494-4.013c-0.002-0.015-0.004-0.030-0.006-0.046-0.021-0.165-0.046-0.368-0.041-0.568 0.004-0.183 0.023-0.336 0.063-0.515 0.043-0.196 0.126-0.41 0.195-0.592 0.007-0.019 0.014-0.037 0.021-0.055 0.391-1.025 0.606-2.138 0.606-3.304 0-5.146-4.202-9.333-9.403-9.333s-9.403 4.187-9.403 9.333c0 0.014 0 0.028 0 0.042zM15.814 23.511c0.121-0.482 0.186-0.988 0.186-1.511 0-3.344-2.638-6-5.825-6s-5.825 2.656-5.825 6c0 0.672 0.107 1.315 0.303 1.915 0.008 0.024 0.016 0.048 0.024 0.073 0.075 0.228 0.16 0.487 0.194 0.704 0.032 0.204 0.040 0.361 0.028 0.567-0.013 0.219-0.063 0.444-0.104 0.628-0.004 0.018-0.008 0.035-0.012 0.052l-0.402 1.814 2.097-0.286c0.015-0.002 0.031-0.004 0.047-0.007 0.166-0.023 0.369-0.051 0.564-0.050 0.185 0.001 0.322 0.015 0.503 0.051 0.192 0.038 0.423 0.12 0.627 0.193 0.022 0.008 0.044 0.016 0.065 0.023 0.591 0.209 1.226 0.322 1.889 0.322 2.666 0 4.948-1.859 5.623-4.425 0.005-0.021 0.011-0.043 0.016-0.064z"></path>
</symbol>
<symbol id="icon-location" viewBox="0 0 32 32">
<path d="M16 10.667c-0.884 0-1.732 0.351-2.357 0.976s-0.976 1.473-0.976 2.357c0 0.884 0.351 1.732 0.976 2.357s1.473 0.976 2.357 0.976 1.732-0.351 2.357-0.976c0.625-0.625 0.976-1.473 0.976-2.357s-0.351-1.732-0.976-2.357c-0.625-0.625-1.473-0.976-2.357-0.976zM12.7 10.7c0.875-0.875 2.062-1.367 3.3-1.367s2.425 0.492 3.3 1.367c0.875 0.875 1.367 2.062 1.367 3.3s-0.492 2.425-1.367 3.3-2.062 1.367-3.3 1.367c-1.238 0-2.425-0.492-3.3-1.367s-1.367-2.062-1.367-3.3c0-1.238 0.492-2.425 1.367-3.3z"></path>
<path d="M16 4.667c-2.475 0-4.849 0.983-6.6 2.734s-2.734 4.124-2.734 6.6c0 4.517 2.372 8.108 4.81 10.605 1.215 1.244 2.432 2.201 3.345 2.846 0.456 0.322 0.835 0.566 1.098 0.727 0.028 0.017 0.055 0.034 0.080 0.049 0.025-0.015 0.052-0.032 0.080-0.049 0.263-0.162 0.642-0.405 1.098-0.727 0.913-0.645 2.13-1.602 3.345-2.846 2.439-2.497 4.81-6.088 4.81-10.605 0-2.475-0.983-4.849-2.734-6.6s-4.124-2.734-6.6-2.734zM16 29c-0.32 0.585-0.321 0.585-0.321 0.584l-0.003-0.002-0.007-0.004-0.025-0.014c-0.021-0.012-0.052-0.029-0.091-0.052-0.078-0.045-0.191-0.112-0.333-0.199-0.284-0.175-0.687-0.434-1.168-0.774-0.962-0.679-2.245-1.687-3.53-3.003-2.561-2.623-5.19-6.531-5.19-11.537 0-2.829 1.124-5.542 3.124-7.542s4.713-3.124 7.542-3.124c2.829 0 5.542 1.124 7.543 3.124s3.124 4.713 3.124 7.542c0 5.006-2.628 8.914-5.19 11.537-1.285 1.316-2.568 2.324-3.53 3.003-0.481 0.34-0.884 0.599-1.168 0.774-0.142 0.087-0.255 0.154-0.333 0.199-0.039 0.023-0.069 0.040-0.091 0.052l-0.034 0.019c-0 0-0.001 0.001-0.322-0.584zM16 29l0.32 0.585c-0.199 0.109-0.442 0.109-0.641-0l0.321-0.584z"></path>
</symbol>
<symbol id="icon-email" viewBox="0 0 32 32">
<path d="M3.407 6.407c0.688-0.688 1.62-1.074 2.593-1.074h20c0.972 0 1.905 0.386 2.593 1.074s1.074 1.62 1.074 2.593v0.324c0 0 0-0 0 0v13.676c0 0.972-0.386 1.905-1.074 2.593s-1.62 1.074-2.593 1.074h-20c-0.972 0-1.905-0.386-2.593-1.074s-1.074-1.62-1.074-2.593v-14c0-0.972 0.386-1.905 1.074-2.593zM3.667 9v0.326c0-0 0 0 0 0 0 0.398 0.102 0.79 0.296 1.137s0.474 0.64 0.813 0.849l10 6.152c0.368 0.227 0.792 0.347 1.224 0.347s0.856-0.12 1.224-0.347l10-6.153c-0 0 0-0 0 0 0.339-0.209 0.619-0.501 0.813-0.849s0.296-0.74 0.296-1.138c0 0 0-0 0 0v-0.324c0-0.619-0.246-1.212-0.683-1.65s-1.031-0.683-1.65-0.683h-20c-0.619 0-1.212 0.246-1.65 0.683s-0.683 1.031-0.683 1.65zM3.667 12.154v10.846c0 0.619 0.246 1.212 0.683 1.65s1.031 0.683 1.65 0.683h20c0.619 0 1.212-0.246 1.65-0.683s0.683-1.031 0.683-1.65v-10.847c-0.129 0.107-0.267 0.205-0.41 0.294l-10 6.153c-0.578 0.356-1.244 0.545-1.923 0.545s-1.345-0.188-1.923-0.544l-10-6.152c-0.144-0.089-0.281-0.187-0.411-0.294z"></path>
</symbol>
<symbol id="icon-arrow-visit" viewBox="0 0 32 32">
<path d="M6.333 6.333c0-0.736 0.597-1.333 1.333-1.333h18c0.736 0 1.333 0.597 1.333 1.333v18c0 0.736-0.597 1.333-1.333 1.333s-1.333-0.597-1.333-1.333v-14.781l-17.057 17.057c-0.521 0.521-1.365 0.521-1.886 0s-0.521-1.365 0-1.886l17.057-17.057h-14.781c-0.736 0-1.333-0.597-1.333-1.333z"></path>
</symbol>
<symbol id="icon-arrow-long" viewBox="0 0 60 32">
<path d="M46.686 1.857l12.728 12.728c0.781 0.781 0.781 2.047 0 2.828l-12.728 12.728c-0.781 0.781-2.047 0.781-2.828 0s-0.781-2.047 0-2.828l9.314-9.314h-51.172c-1.105 0-2-0.895-2-2s0.895-2 2-2h51.172l-9.314-9.314c-0.781-0.781-0.781-2.047 0-2.828s2.047-0.781 2.828 0z"></path>
</symbol>
</defs>
</svg>
